<?xml version="1.0" encoding="UTF-8" standalone="no"?>
<!-- Created with Inkscape (http://www.inkscape.org/) -->

<svg
   xmlns:dc="http://purl.org/dc/elements/1.1/"
   xmlns:cc="http://creativecommons.org/ns#"
   xmlns:rdf="http://www.w3.org/1999/02/22-rdf-syntax-ns#"
   xmlns:svg="http://www.w3.org/2000/svg"
   xmlns="http://www.w3.org/2000/svg"
   xmlns:sodipodi="http://sodipodi.sourceforge.net/DTD/sodipodi-0.dtd"
   xmlns:inkscape="http://www.inkscape.org/namespaces/inkscape"
   width="35.271893"
   height="26.406666"
   id="svg4412"
   version="1.1"
   inkscape:version="0.47pre4 r22446"
   sodipodi:docname="castle.svg">
  <defs
     id="defs4414">
    <inkscape:perspective
       sodipodi:type="inkscape:persp3d"
       inkscape:vp_x="0 : 526.18109 : 1"
       inkscape:vp_y="0 : 1000 : 0"
       inkscape:vp_z="744.09448 : 526.18109 : 1"
       inkscape:persp3d-origin="372.04724 : 350.78739 : 1"
       id="perspective4420" />
  </defs>
  <sodipodi:namedview
     id="base"
     pagecolor="#ffffff"
     bordercolor="#666666"
     borderopacity="1.0"
     inkscape:pageopacity="0.0"
     inkscape:pageshadow="2"
     inkscape:zoom="5.6"
     inkscape:cx="23.841691"
     inkscape:cy="0.28586565"
     inkscape:document-units="px"
     inkscape:current-layer="layer1"
     showgrid="false"
     inkscape:window-width="854"
     inkscape:window-height="661"
     inkscape:window-x="243"
     inkscape:window-y="220"
     inkscape:window-maximized="0" />
  <metadata
     id="metadata4417">
    <rdf:RDF>
      <cc:Work
         rdf:about="">
        <dc:format>image/svg+xml</dc:format>
        <dc:type
           rdf:resource="http://purl.org/dc/dcmitype/StillImage" />
        <dc:title />
      </cc:Work>
    </rdf:RDF>
  </metadata>
  <g
     inkscape:label="Layer 1"
     inkscape:groupmode="layer"
     id="layer1"
     transform="translate(-1.5203051,-1009.2829)">
    <path
       style="fill:#7d7d7d;fill-opacity:1;stroke:#444444;stroke-width:0.36566564px;stroke-linecap:butt;stroke-linejoin:miter;stroke-opacity:1"
       d="m 4.2887844,1025.1642 0.7387562,10.3425 28.8114894,0 0.923446,-10.5273 -6.279427,-0.9233 0,3.3243 -7.018185,-1.1081 2.585647,-13.1129 -9.234451,-0.9235 0.369378,14.5906 -5.3559828,-0.739 0.5540678,-2.955 -6.0947386,2.0317 z"
       id="path4932" />
    <path
       style="fill:#bbbbbb;fill-opacity:1;stroke:#989898;stroke-width:0.36566564px;stroke-linecap:butt;stroke-linejoin:miter;stroke-opacity:1"
       d="m 1.7031379,1023.1325 1.4775123,4.4325 8.1263178,-2.955 0.184689,-4.2477 -9.7885191,2.7702 z"
       id="path4934" />
    <path
       style="fill:#bbbbbb;fill-opacity:1;stroke:#989898;stroke-width:0.36566564px;stroke-linecap:butt;stroke-linejoin:miter;stroke-opacity:1"
       d="m 27.744292,1021.8398 -1.108135,3.1396 9.603831,2.5856 0.369378,-3.6935 -8.865074,-2.0317 z"
       id="path4936" />
    <path
       style="fill:#bbbbbb;fill-opacity:1;stroke:#989898;stroke-width:0.36566564px;stroke-linecap:butt;stroke-linejoin:miter;stroke-opacity:1"
       d="m 13.153859,1014.8217 6.833493,-1.1083 5.171294,2.7704 1.477511,-4.0631 -5.910048,-2.955 -8.311007,1.4775 0.738757,3.8785 z"
       id="path4938" />
    <path
       style="fill:#74530a;fill-opacity:1;stroke:#3f2c07;stroke-width:0.36566564px;stroke-linecap:butt;stroke-linejoin:miter;stroke-opacity:1"
       d="m 15.739505,1035.5067 -0.923445,-5.7252 7.57225,-0.5542 -0.738755,6.0948 -5.91005,0.1846 z"
       id="path4940" />
    <path
       style="fill:#000000;fill-opacity:1;stroke:#000000;stroke-width:0.36566564px;stroke-linecap:butt;stroke-linejoin:miter;stroke-opacity:1"
       d="m 17.771084,1017.7767 -0.184689,3.6937 2.400957,0.1846 0.738757,-4.4325 -1.662201,-1.6622 -1.292824,2.2164 z"
       id="path4944" />
    <path
       style="fill:#000000;fill-opacity:1;stroke:none"
       d="m 8.1672544,1030.1508 0,2.4009 2.4009576,-0.3694 0.738756,-2.7702 -3.1397136,0.7387 z"
       id="path4946" />
    <path
       style="fill:#000000;fill-opacity:1;stroke:none"
       d="m 28.113671,1029.4121 0,2.955 2.955023,0.1846 -0.184687,-2.5856 -2.770336,-0.554 z"
       id="path4948" />
  </g>
</svg>
