<?xml version="1.0" encoding="UTF-8" standalone="no"?>
<!-- Created with Inkscape (http://www.inkscape.org/) -->

<svg
   xmlns:dc="http://purl.org/dc/elements/1.1/"
   xmlns:cc="http://creativecommons.org/ns#"
   xmlns:rdf="http://www.w3.org/1999/02/22-rdf-syntax-ns#"
   xmlns:svg="http://www.w3.org/2000/svg"
   xmlns="http://www.w3.org/2000/svg"
   xmlns:sodipodi="http://sodipodi.sourceforge.net/DTD/sodipodi-0.dtd"
   xmlns:inkscape="http://www.inkscape.org/namespaces/inkscape"
   width="27.269041"
   height="10.112232"
   id="svg3670"
   version="1.1"
   inkscape:version="0.47pre4 r22446"
   sodipodi:docname="jaguarshark.svg">
  <defs
     id="defs3672">
    <inkscape:perspective
       sodipodi:type="inkscape:persp3d"
       inkscape:vp_x="0 : 526.18109 : 1"
       inkscape:vp_y="0 : 1000 : 0"
       inkscape:vp_z="744.09448 : 526.18109 : 1"
       inkscape:persp3d-origin="372.04724 : 350.78739 : 1"
       id="perspective3678" />
    <inkscape:perspective
       id="perspective3662"
       inkscape:persp3d-origin="0.5 : 0.33333333 : 1"
       inkscape:vp_z="1 : 0.5 : 1"
       inkscape:vp_y="0 : 1000 : 0"
       inkscape:vp_x="0 : 0.5 : 1"
       sodipodi:type="inkscape:persp3d" />
    <inkscape:perspective
       id="perspective3709"
       inkscape:persp3d-origin="0.5 : 0.33333333 : 1"
       inkscape:vp_z="1 : 0.5 : 1"
       inkscape:vp_y="0 : 1000 : 0"
       inkscape:vp_x="0 : 0.5 : 1"
       sodipodi:type="inkscape:persp3d" />
    <inkscape:perspective
       id="perspective3736"
       inkscape:persp3d-origin="0.5 : 0.33333333 : 1"
       inkscape:vp_z="1 : 0.5 : 1"
       inkscape:vp_y="0 : 1000 : 0"
       inkscape:vp_x="0 : 0.5 : 1"
       sodipodi:type="inkscape:persp3d" />
    <inkscape:perspective
       id="perspective3736-7"
       inkscape:persp3d-origin="0.5 : 0.33333333 : 1"
       inkscape:vp_z="1 : 0.5 : 1"
       inkscape:vp_y="0 : 1000 : 0"
       inkscape:vp_x="0 : 0.5 : 1"
       sodipodi:type="inkscape:persp3d" />
    <inkscape:perspective
       id="perspective3736-2"
       inkscape:persp3d-origin="0.5 : 0.33333333 : 1"
       inkscape:vp_z="1 : 0.5 : 1"
       inkscape:vp_y="0 : 1000 : 0"
       inkscape:vp_x="0 : 0.5 : 1"
       sodipodi:type="inkscape:persp3d" />
    <inkscape:perspective
       id="perspective3736-5"
       inkscape:persp3d-origin="0.5 : 0.33333333 : 1"
       inkscape:vp_z="1 : 0.5 : 1"
       inkscape:vp_y="0 : 1000 : 0"
       inkscape:vp_x="0 : 0.5 : 1"
       sodipodi:type="inkscape:persp3d" />
    <inkscape:perspective
       id="perspective3736-6"
       inkscape:persp3d-origin="0.5 : 0.33333333 : 1"
       inkscape:vp_z="1 : 0.5 : 1"
       inkscape:vp_y="0 : 1000 : 0"
       inkscape:vp_x="0 : 0.5 : 1"
       sodipodi:type="inkscape:persp3d" />
    <inkscape:perspective
       id="perspective3736-8"
       inkscape:persp3d-origin="0.5 : 0.33333333 : 1"
       inkscape:vp_z="1 : 0.5 : 1"
       inkscape:vp_y="0 : 1000 : 0"
       inkscape:vp_x="0 : 0.5 : 1"
       sodipodi:type="inkscape:persp3d" />
    <inkscape:perspective
       id="perspective3736-60"
       inkscape:persp3d-origin="0.5 : 0.33333333 : 1"
       inkscape:vp_z="1 : 0.5 : 1"
       inkscape:vp_y="0 : 1000 : 0"
       inkscape:vp_x="0 : 0.5 : 1"
       sodipodi:type="inkscape:persp3d" />
    <inkscape:perspective
       id="perspective3736-1"
       inkscape:persp3d-origin="0.5 : 0.33333333 : 1"
       inkscape:vp_z="1 : 0.5 : 1"
       inkscape:vp_y="0 : 1000 : 0"
       inkscape:vp_x="0 : 0.5 : 1"
       sodipodi:type="inkscape:persp3d" />
    <inkscape:perspective
       id="perspective3736-4"
       inkscape:persp3d-origin="0.5 : 0.33333333 : 1"
       inkscape:vp_z="1 : 0.5 : 1"
       inkscape:vp_y="0 : 1000 : 0"
       inkscape:vp_x="0 : 0.5 : 1"
       sodipodi:type="inkscape:persp3d" />
    <inkscape:perspective
       id="perspective3736-70"
       inkscape:persp3d-origin="0.5 : 0.33333333 : 1"
       inkscape:vp_z="1 : 0.5 : 1"
       inkscape:vp_y="0 : 1000 : 0"
       inkscape:vp_x="0 : 0.5 : 1"
       sodipodi:type="inkscape:persp3d" />
    <inkscape:perspective
       id="perspective3736-24"
       inkscape:persp3d-origin="0.5 : 0.33333333 : 1"
       inkscape:vp_z="1 : 0.5 : 1"
       inkscape:vp_y="0 : 1000 : 0"
       inkscape:vp_x="0 : 0.5 : 1"
       sodipodi:type="inkscape:persp3d" />
    <inkscape:perspective
       id="perspective3736-9"
       inkscape:persp3d-origin="0.5 : 0.33333333 : 1"
       inkscape:vp_z="1 : 0.5 : 1"
       inkscape:vp_y="0 : 1000 : 0"
       inkscape:vp_x="0 : 0.5 : 1"
       sodipodi:type="inkscape:persp3d" />
    <inkscape:perspective
       id="perspective3736-3"
       inkscape:persp3d-origin="0.5 : 0.33333333 : 1"
       inkscape:vp_z="1 : 0.5 : 1"
       inkscape:vp_y="0 : 1000 : 0"
       inkscape:vp_x="0 : 0.5 : 1"
       sodipodi:type="inkscape:persp3d" />
    <inkscape:perspective
       id="perspective3736-78"
       inkscape:persp3d-origin="0.5 : 0.33333333 : 1"
       inkscape:vp_z="1 : 0.5 : 1"
       inkscape:vp_y="0 : 1000 : 0"
       inkscape:vp_x="0 : 0.5 : 1"
       sodipodi:type="inkscape:persp3d" />
    <inkscape:perspective
       id="perspective3736-15"
       inkscape:persp3d-origin="0.5 : 0.33333333 : 1"
       inkscape:vp_z="1 : 0.5 : 1"
       inkscape:vp_y="0 : 1000 : 0"
       inkscape:vp_x="0 : 0.5 : 1"
       sodipodi:type="inkscape:persp3d" />
    <inkscape:perspective
       id="perspective3736-25"
       inkscape:persp3d-origin="0.5 : 0.33333333 : 1"
       inkscape:vp_z="1 : 0.5 : 1"
       inkscape:vp_y="0 : 1000 : 0"
       inkscape:vp_x="0 : 0.5 : 1"
       sodipodi:type="inkscape:persp3d" />
    <inkscape:perspective
       id="perspective3736-99"
       inkscape:persp3d-origin="0.5 : 0.33333333 : 1"
       inkscape:vp_z="1 : 0.5 : 1"
       inkscape:vp_y="0 : 1000 : 0"
       inkscape:vp_x="0 : 0.5 : 1"
       sodipodi:type="inkscape:persp3d" />
    <inkscape:perspective
       id="perspective3736-93"
       inkscape:persp3d-origin="0.5 : 0.33333333 : 1"
       inkscape:vp_z="1 : 0.5 : 1"
       inkscape:vp_y="0 : 1000 : 0"
       inkscape:vp_x="0 : 0.5 : 1"
       sodipodi:type="inkscape:persp3d" />
    <inkscape:perspective
       id="perspective3736-0"
       inkscape:persp3d-origin="0.5 : 0.33333333 : 1"
       inkscape:vp_z="1 : 0.5 : 1"
       inkscape:vp_y="0 : 1000 : 0"
       inkscape:vp_x="0 : 0.5 : 1"
       sodipodi:type="inkscape:persp3d" />
    <inkscape:perspective
       id="perspective3736-997"
       inkscape:persp3d-origin="0.5 : 0.33333333 : 1"
       inkscape:vp_z="1 : 0.5 : 1"
       inkscape:vp_y="0 : 1000 : 0"
       inkscape:vp_x="0 : 0.5 : 1"
       sodipodi:type="inkscape:persp3d" />
    <inkscape:perspective
       id="perspective3736-53"
       inkscape:persp3d-origin="0.5 : 0.33333333 : 1"
       inkscape:vp_z="1 : 0.5 : 1"
       inkscape:vp_y="0 : 1000 : 0"
       inkscape:vp_x="0 : 0.5 : 1"
       sodipodi:type="inkscape:persp3d" />
    <inkscape:perspective
       id="perspective3736-20"
       inkscape:persp3d-origin="0.5 : 0.33333333 : 1"
       inkscape:vp_z="1 : 0.5 : 1"
       inkscape:vp_y="0 : 1000 : 0"
       inkscape:vp_x="0 : 0.5 : 1"
       sodipodi:type="inkscape:persp3d" />
    <inkscape:perspective
       id="perspective3736-96"
       inkscape:persp3d-origin="0.5 : 0.33333333 : 1"
       inkscape:vp_z="1 : 0.5 : 1"
       inkscape:vp_y="0 : 1000 : 0"
       inkscape:vp_x="0 : 0.5 : 1"
       sodipodi:type="inkscape:persp3d" />
    <inkscape:perspective
       id="perspective3736-207"
       inkscape:persp3d-origin="0.5 : 0.33333333 : 1"
       inkscape:vp_z="1 : 0.5 : 1"
       inkscape:vp_y="0 : 1000 : 0"
       inkscape:vp_x="0 : 0.5 : 1"
       sodipodi:type="inkscape:persp3d" />
    <inkscape:perspective
       id="perspective3736-19"
       inkscape:persp3d-origin="0.5 : 0.33333333 : 1"
       inkscape:vp_z="1 : 0.5 : 1"
       inkscape:vp_y="0 : 1000 : 0"
       inkscape:vp_x="0 : 0.5 : 1"
       sodipodi:type="inkscape:persp3d" />
    <inkscape:perspective
       id="perspective3736-67"
       inkscape:persp3d-origin="0.5 : 0.33333333 : 1"
       inkscape:vp_z="1 : 0.5 : 1"
       inkscape:vp_y="0 : 1000 : 0"
       inkscape:vp_x="0 : 0.5 : 1"
       sodipodi:type="inkscape:persp3d" />
    <inkscape:perspective
       id="perspective3736-64"
       inkscape:persp3d-origin="0.5 : 0.33333333 : 1"
       inkscape:vp_z="1 : 0.5 : 1"
       inkscape:vp_y="0 : 1000 : 0"
       inkscape:vp_x="0 : 0.5 : 1"
       sodipodi:type="inkscape:persp3d" />
    <inkscape:perspective
       id="perspective3736-58"
       inkscape:persp3d-origin="0.5 : 0.33333333 : 1"
       inkscape:vp_z="1 : 0.5 : 1"
       inkscape:vp_y="0 : 1000 : 0"
       inkscape:vp_x="0 : 0.5 : 1"
       sodipodi:type="inkscape:persp3d" />
    <inkscape:perspective
       id="perspective4001"
       inkscape:persp3d-origin="0.5 : 0.33333333 : 1"
       inkscape:vp_z="1 : 0.5 : 1"
       inkscape:vp_y="0 : 1000 : 0"
       inkscape:vp_x="0 : 0.5 : 1"
       sodipodi:type="inkscape:persp3d" />
    <inkscape:perspective
       id="perspective4001-9"
       inkscape:persp3d-origin="0.5 : 0.33333333 : 1"
       inkscape:vp_z="1 : 0.5 : 1"
       inkscape:vp_y="0 : 1000 : 0"
       inkscape:vp_x="0 : 0.5 : 1"
       sodipodi:type="inkscape:persp3d" />
    <inkscape:perspective
       id="perspective4001-5"
       inkscape:persp3d-origin="0.5 : 0.33333333 : 1"
       inkscape:vp_z="1 : 0.5 : 1"
       inkscape:vp_y="0 : 1000 : 0"
       inkscape:vp_x="0 : 0.5 : 1"
       sodipodi:type="inkscape:persp3d" />
    <inkscape:perspective
       id="perspective4001-3"
       inkscape:persp3d-origin="0.5 : 0.33333333 : 1"
       inkscape:vp_z="1 : 0.5 : 1"
       inkscape:vp_y="0 : 1000 : 0"
       inkscape:vp_x="0 : 0.5 : 1"
       sodipodi:type="inkscape:persp3d" />
    <inkscape:perspective
       id="perspective4001-8"
       inkscape:persp3d-origin="0.5 : 0.33333333 : 1"
       inkscape:vp_z="1 : 0.5 : 1"
       inkscape:vp_y="0 : 1000 : 0"
       inkscape:vp_x="0 : 0.5 : 1"
       sodipodi:type="inkscape:persp3d" />
    <inkscape:perspective
       id="perspective4001-1"
       inkscape:persp3d-origin="0.5 : 0.33333333 : 1"
       inkscape:vp_z="1 : 0.5 : 1"
       inkscape:vp_y="0 : 1000 : 0"
       inkscape:vp_x="0 : 0.5 : 1"
       sodipodi:type="inkscape:persp3d" />
    <inkscape:perspective
       id="perspective4068"
       inkscape:persp3d-origin="0.5 : 0.33333333 : 1"
       inkscape:vp_z="1 : 0.5 : 1"
       inkscape:vp_y="0 : 1000 : 0"
       inkscape:vp_x="0 : 0.5 : 1"
       sodipodi:type="inkscape:persp3d" />
  </defs>
  <sodipodi:namedview
     id="base"
     pagecolor="#ffffff"
     bordercolor="#666666"
     borderopacity="1.0"
     inkscape:pageopacity="0.0"
     inkscape:pageshadow="2"
     inkscape:zoom="11.2"
     inkscape:cx="13.428255"
     inkscape:cy="4.3168439"
     inkscape:document-units="px"
     inkscape:current-layer="layer1"
     showgrid="false"
     inkscape:window-width="697"
     inkscape:window-height="648"
     inkscape:window-x="884"
     inkscape:window-y="159"
     inkscape:window-maximized="0" />
  <metadata
     id="metadata3675">
    <rdf:RDF>
      <cc:Work
         rdf:about="">
        <dc:format>image/svg+xml</dc:format>
        <dc:type
           rdf:resource="http://purl.org/dc/dcmitype/StillImage" />
        <dc:title></dc:title>
      </cc:Work>
    </rdf:RDF>
  </metadata>
  <g
     inkscape:label="Layer 1"
     inkscape:groupmode="layer"
     id="layer1"
     transform="translate(-1.9208487,-2.6585372)">
    <path
       style="fill:#948651;fill-opacity:1;stroke:#000000;stroke-width:0.5;stroke-linecap:butt;stroke-linejoin:round;stroke-miterlimit:4;stroke-opacity:1;stroke-dasharray:none"
       d="M 5.0507627,9.4288757 C 6.1738771,9.9467609 8.649431,10.060221 8.649431,10.060221 l 5.745243,2.399112 -2.335978,-2.020305 c 0,0 4.430067,-0.4617403 5.99778,-0.6313452 1.567713,-0.1696049 2.355211,-0.1838201 3.409265,-0.3788071 1.054054,-0.194987 2.904189,-0.7576144 2.904189,-0.7576144 l 2.525382,2.0203047 -0.883884,-3.6618025 2.904188,-3.788072 c 0,0 -2.905545,2.1445098 -4.166879,2.5253813 -1.261334,0.3808715 -3.030458,0.1262691 -3.030458,0.1262691 L 21.023799,4.251844 19.2876,5.7039382 14.631428,5.4829673 13.818571,2.8471006 10.73287,5.5145346 2.1465741,7.0297634 c 0,0 1.7810742,1.8812271 2.9041886,2.3991123 z"
       id="path2927"
       transform="translate(0.02427458,0.06143658)"
       sodipodi:nodetypes="cccczzcccczcccccccz" />
    <path
       sodipodi:type="arc"
       style="fill:#ffffff;fill-opacity:1;stroke:#1f0ee4;stroke-width:2;stroke-linecap:round;stroke-linejoin:round;stroke-miterlimit:4;stroke-opacity:1;stroke-dasharray:none;stroke-dashoffset:0"
       id="path3629-0"
       sodipodi:cx="63.392857"
       sodipodi:cy="82.719322"
       sodipodi:rx="7.3214288"
       sodipodi:ry="8.2142859"
       d="m 70.714285,82.719322 c 0,4.536625 -3.277915,8.214286 -7.321428,8.214286 -4.043514,0 -7.321429,-3.677661 -7.321429,-8.214286 0,-4.536625 3.277915,-8.214286 7.321429,-8.214286 4.043513,0 7.321428,3.677661 7.321428,8.214286 z"
       transform="matrix(0.09531959,0,0,0.11576261,0.9896266,-1.8532594)" />
    <path
       sodipodi:type="arc"
       style="fill:#000000;fill-opacity:1;stroke:none"
       id="path3631-2"
       sodipodi:cx="51.42857"
       sodipodi:cy="84.326469"
       sodipodi:rx="3.9285715"
       sodipodi:ry="4.8214288"
       d="m 55.357141,84.326469 c 0,2.662802 -1.758881,4.821429 -3.928571,4.821429 -2.16969,0 -3.928572,-2.158627 -3.928572,-4.821429 0,-2.662801 1.758882,-4.821428 3.928572,-4.821428 2.16969,0 3.928571,2.158627 3.928571,4.821428 z"
       transform="matrix(0.09531959,0,0,0.11576261,2.0789921,-1.6878864)" />
    <path
       sodipodi:type="arc"
       style="fill:#ffea14;fill-opacity:1;stroke:#000000;stroke-width:0.25;stroke-linecap:round;stroke-linejoin:round;stroke-miterlimit:4;stroke-opacity:1;stroke-dasharray:none;stroke-dashoffset:0"
       id="path3726"
       sodipodi:cx="10.859139"
       sodipodi:cy="9.4288759"
       sodipodi:rx="0.50507629"
       sodipodi:ry="0.44194174"
       d="m 11.364216,9.4288759 c 0,0.2440777 -0.226131,0.4419418 -0.505077,0.4419418 -0.278945,0 -0.505076,-0.1978641 -0.505076,-0.4419418 0,-0.2440777 0.226131,-0.4419417 0.505076,-0.4419417 0.278946,0 0.505077,0.197864 0.505077,0.4419417 z"
       transform="translate(0.64927458,0.10607944)" />
    <path
       transform="translate(-0.77032281,-2.3006925)"
       sodipodi:type="arc"
       style="fill:#ffea14;fill-opacity:1;stroke:#000000;stroke-width:0.25;stroke-linecap:round;stroke-linejoin:round;stroke-miterlimit:4;stroke-opacity:1;stroke-dasharray:none;stroke-dashoffset:0"
       id="path3726-7"
       sodipodi:cx="10.859139"
       sodipodi:cy="9.4288759"
       sodipodi:rx="0.50507629"
       sodipodi:ry="0.44194174"
       d="m 11.364216,9.4288759 c 0,0.2440777 -0.226131,0.4419418 -0.505077,0.4419418 -0.278945,0 -0.505076,-0.1978641 -0.505076,-0.4419418 0,-0.2440777 0.226131,-0.4419417 0.505076,-0.4419417 0.278946,0 0.505077,0.197864 0.505077,0.4419417 z" />
    <path
       transform="translate(0.36292611,-1.1304602)"
       sodipodi:type="arc"
       style="fill:#ffea14;fill-opacity:1;stroke:#000000;stroke-width:0.25;stroke-linecap:round;stroke-linejoin:round;stroke-miterlimit:4;stroke-opacity:1;stroke-dasharray:none;stroke-dashoffset:0"
       id="path3726-3"
       sodipodi:cx="10.859139"
       sodipodi:cy="9.4288759"
       sodipodi:rx="0.50507629"
       sodipodi:ry="0.44194174"
       d="m 11.364216,9.4288759 c 0,0.2440777 -0.226131,0.4419418 -0.505077,0.4419418 -0.278945,0 -0.505076,-0.1978641 -0.505076,-0.4419418 0,-0.2440777 0.226131,-0.4419417 0.505076,-0.4419417 0.278946,0 0.505077,0.197864 0.505077,0.4419417 z" />
    <path
       transform="translate(1.989105,0.01044817)"
       sodipodi:type="arc"
       style="fill:#ffea14;fill-opacity:1;stroke:#000000;stroke-width:0.25;stroke-linecap:round;stroke-linejoin:round;stroke-miterlimit:4;stroke-opacity:1;stroke-dasharray:none;stroke-dashoffset:0"
       id="path3726-6"
       sodipodi:cx="10.859139"
       sodipodi:cy="9.4288759"
       sodipodi:rx="0.50507629"
       sodipodi:ry="0.44194174"
       d="m 11.364216,9.4288759 c 0,0.2440777 -0.226131,0.4419418 -0.505077,0.4419418 -0.278945,0 -0.505076,-0.1978641 -0.505076,-0.4419418 0,-0.2440777 0.226131,-0.4419417 0.505076,-0.4419417 0.278946,0 0.505077,0.197864 0.505077,0.4419417 z" />
    <path
       transform="translate(1.3501002,-2.2745414)"
       sodipodi:type="arc"
       style="fill:#ffea14;fill-opacity:1;stroke:#000000;stroke-width:0.25;stroke-linecap:round;stroke-linejoin:round;stroke-miterlimit:4;stroke-opacity:1;stroke-dasharray:none;stroke-dashoffset:0"
       id="path3726-2"
       sodipodi:cx="10.859139"
       sodipodi:cy="9.4288759"
       sodipodi:rx="0.50507629"
       sodipodi:ry="0.44194174"
       d="m 11.364216,9.4288759 c 0,0.2440777 -0.226131,0.4419418 -0.505077,0.4419418 -0.278945,0 -0.505076,-0.1978641 -0.505076,-0.4419418 0,-0.2440777 0.226131,-0.4419417 0.505076,-0.4419417 0.278946,0 0.505077,0.197864 0.505077,0.4419417 z" />
    <path
       transform="translate(2.2971182,-3.537232)"
       sodipodi:type="arc"
       style="fill:#ffea14;fill-opacity:1;stroke:#000000;stroke-width:0.25;stroke-linecap:round;stroke-linejoin:round;stroke-miterlimit:4;stroke-opacity:1;stroke-dasharray:none;stroke-dashoffset:0"
       id="path3726-5"
       sodipodi:cx="10.859139"
       sodipodi:cy="9.4288759"
       sodipodi:rx="0.50507629"
       sodipodi:ry="0.44194174"
       d="m 11.364216,9.4288759 c 0,0.2440777 -0.226131,0.4419418 -0.505077,0.4419418 -0.278945,0 -0.505076,-0.1978641 -0.505076,-0.4419418 0,-0.2440777 0.226131,-0.4419417 0.505076,-0.4419417 0.278946,0 0.505077,0.197864 0.505077,0.4419417 z" />
    <path
       transform="translate(3.4335398,-2.6533485)"
       sodipodi:type="arc"
       style="fill:#ffea14;fill-opacity:1;stroke:#000000;stroke-width:0.25;stroke-linecap:round;stroke-linejoin:round;stroke-miterlimit:4;stroke-opacity:1;stroke-dasharray:none;stroke-dashoffset:0"
       id="path3726-79"
       sodipodi:cx="10.859139"
       sodipodi:cy="9.4288759"
       sodipodi:rx="0.50507629"
       sodipodi:ry="0.44194174"
       d="m 11.364216,9.4288759 c 0,0.2440777 -0.226131,0.4419418 -0.505077,0.4419418 -0.278945,0 -0.505076,-0.1978641 -0.505076,-0.4419418 0,-0.2440777 0.226131,-0.4419417 0.505076,-0.4419417 0.278946,0 0.505077,0.197864 0.505077,0.4419417 z" />
    <path
       transform="translate(3.2441361,-1.3275234)"
       sodipodi:type="arc"
       style="fill:#ffea14;fill-opacity:1;stroke:#000000;stroke-width:0.25;stroke-linecap:round;stroke-linejoin:round;stroke-miterlimit:4;stroke-opacity:1;stroke-dasharray:none;stroke-dashoffset:0"
       id="path3726-4"
       sodipodi:cx="10.859139"
       sodipodi:cy="9.4288759"
       sodipodi:rx="0.50507629"
       sodipodi:ry="0.44194174"
       d="m 11.364216,9.4288759 c 0,0.2440777 -0.226131,0.4419418 -0.505077,0.4419418 -0.278945,0 -0.505076,-0.1978641 -0.505076,-0.4419418 0,-0.2440777 0.226131,-0.4419417 0.505076,-0.4419417 0.278946,0 0.505077,0.197864 0.505077,0.4419417 z" />
    <path
       transform="translate(4.8779745,-3.0181509)"
       sodipodi:type="arc"
       style="fill:#ffea14;fill-opacity:1;stroke:#000000;stroke-width:0.25;stroke-linecap:round;stroke-linejoin:round;stroke-miterlimit:4;stroke-opacity:1;stroke-dasharray:none;stroke-dashoffset:0"
       id="path3726-0"
       sodipodi:cx="10.859139"
       sodipodi:cy="9.4288759"
       sodipodi:rx="0.50507629"
       sodipodi:ry="0.44194174"
       d="m 11.364216,9.4288759 c 0,0.2440777 -0.226131,0.4419418 -0.505077,0.4419418 -0.278945,0 -0.505076,-0.1978641 -0.505076,-0.4419418 0,-0.2440777 0.226131,-0.4419417 0.505076,-0.4419417 0.278946,0 0.505077,0.197864 0.505077,0.4419417 z" />
    <path
       transform="translate(5.1413448,-0.23125779)"
       sodipodi:type="arc"
       style="fill:#ffea14;fill-opacity:1;stroke:#000000;stroke-width:0.25;stroke-linecap:round;stroke-linejoin:round;stroke-miterlimit:4;stroke-opacity:1;stroke-dasharray:none;stroke-dashoffset:0"
       id="path3726-8"
       sodipodi:cx="10.859139"
       sodipodi:cy="9.4288759"
       sodipodi:rx="0.50507629"
       sodipodi:ry="0.44194174"
       d="m 11.364216,9.4288759 c 0,0.2440777 -0.226131,0.4419418 -0.505077,0.4419418 -0.278945,0 -0.505076,-0.1978641 -0.505076,-0.4419418 0,-0.2440777 0.226131,-0.4419417 0.505076,-0.4419417 0.278946,0 0.505077,0.197864 0.505077,0.4419417 z" />
    <path
       transform="translate(7.0953428,-2.8287473)"
       sodipodi:type="arc"
       style="fill:#ffea14;fill-opacity:1;stroke:#000000;stroke-width:0.25;stroke-linecap:round;stroke-linejoin:round;stroke-miterlimit:4;stroke-opacity:1;stroke-dasharray:none;stroke-dashoffset:0"
       id="path3726-86"
       sodipodi:cx="10.859139"
       sodipodi:cy="9.4288759"
       sodipodi:rx="0.50507629"
       sodipodi:ry="0.44194174"
       d="m 11.364216,9.4288759 c 0,0.2440777 -0.226131,0.4419418 -0.505077,0.4419418 -0.278945,0 -0.505076,-0.1978641 -0.505076,-0.4419418 0,-0.2440777 0.226131,-0.4419417 0.505076,-0.4419417 0.278946,0 0.505077,0.197864 0.505077,0.4419417 z" />
    <path
       transform="translate(6.8906201,-0.24208999)"
       sodipodi:type="arc"
       style="fill:#ffea14;fill-opacity:1;stroke:#000000;stroke-width:0.25;stroke-linecap:round;stroke-linejoin:round;stroke-miterlimit:4;stroke-opacity:1;stroke-dasharray:none;stroke-dashoffset:0"
       id="path3726-793"
       sodipodi:cx="10.859139"
       sodipodi:cy="9.4288759"
       sodipodi:rx="0.50507629"
       sodipodi:ry="0.44194174"
       d="m 11.364216,9.4288759 c 0,0.2440777 -0.226131,0.4419418 -0.505077,0.4419418 -0.278945,0 -0.505076,-0.1978641 -0.505076,-0.4419418 0,-0.2440777 0.226131,-0.4419417 0.505076,-0.4419417 0.278946,0 0.505077,0.197864 0.505077,0.4419417 z" />
    <path
       transform="translate(8.5691012,-2.8134284)"
       sodipodi:type="arc"
       style="fill:#ffea14;fill-opacity:1;stroke:#000000;stroke-width:0.25;stroke-linecap:round;stroke-linejoin:round;stroke-miterlimit:4;stroke-opacity:1;stroke-dasharray:none;stroke-dashoffset:0"
       id="path3726-28"
       sodipodi:cx="10.859139"
       sodipodi:cy="9.4288759"
       sodipodi:rx="0.50507629"
       sodipodi:ry="0.44194174"
       d="m 11.364216,9.4288759 c 0,0.2440777 -0.226131,0.4419418 -0.505077,0.4419418 -0.278945,0 -0.505076,-0.1978641 -0.505076,-0.4419418 0,-0.2440777 0.226131,-0.4419417 0.505076,-0.4419417 0.278946,0 0.505077,0.197864 0.505077,0.4419417 z" />
    <path
       transform="translate(8.8216394,-0.59923283)"
       sodipodi:type="arc"
       style="fill:#ffea14;fill-opacity:1;stroke:#000000;stroke-width:0.25;stroke-linecap:round;stroke-linejoin:round;stroke-miterlimit:4;stroke-opacity:1;stroke-dasharray:none;stroke-dashoffset:0"
       id="path3726-01"
       sodipodi:cx="10.859139"
       sodipodi:cy="9.4288759"
       sodipodi:rx="0.50507629"
       sodipodi:ry="0.44194174"
       d="m 11.364216,9.4288759 c 0,0.2440777 -0.226131,0.4419418 -0.505077,0.4419418 -0.278945,0 -0.505076,-0.1978641 -0.505076,-0.4419418 0,-0.2440777 0.226131,-0.4419417 0.505076,-0.4419417 0.278946,0 0.505077,0.197864 0.505077,0.4419417 z" />
    <path
       transform="translate(11.303692,-2.3345032)"
       sodipodi:type="arc"
       style="fill:#ffea14;fill-opacity:1;stroke:#000000;stroke-width:0.25;stroke-linecap:round;stroke-linejoin:round;stroke-miterlimit:4;stroke-opacity:1;stroke-dasharray:none;stroke-dashoffset:0"
       id="path3726-9"
       sodipodi:cx="10.859139"
       sodipodi:cy="9.4288759"
       sodipodi:rx="0.50507629"
       sodipodi:ry="0.44194174"
       d="m 11.364216,9.4288759 c 0,0.2440777 -0.226131,0.4419418 -0.505077,0.4419418 -0.278945,0 -0.505076,-0.1978641 -0.505076,-0.4419418 0,-0.2440777 0.226131,-0.4419417 0.505076,-0.4419417 0.278946,0 0.505077,0.197864 0.505077,0.4419417 z" />
    <path
       transform="translate(12.840586,-2.5270798)"
       sodipodi:type="arc"
       style="fill:#ffea14;fill-opacity:1;stroke:#000000;stroke-width:0.25;stroke-linecap:round;stroke-linejoin:round;stroke-miterlimit:4;stroke-opacity:1;stroke-dasharray:none;stroke-dashoffset:0"
       id="path3726-49"
       sodipodi:cx="10.859139"
       sodipodi:cy="9.4288759"
       sodipodi:rx="0.50507629"
       sodipodi:ry="0.44194174"
       d="m 11.364216,9.4288759 c 0,0.2440777 -0.226131,0.4419418 -0.505077,0.4419418 -0.278945,0 -0.505076,-0.1978641 -0.505076,-0.4419418 0,-0.2440777 0.226131,-0.4419417 0.505076,-0.4419417 0.278946,0 0.505077,0.197864 0.505077,0.4419417 z" />
    <path
       transform="translate(14.229545,-1.3275234)"
       sodipodi:type="arc"
       style="fill:#ffea14;fill-opacity:1;stroke:#000000;stroke-width:0.25;stroke-linecap:round;stroke-linejoin:round;stroke-miterlimit:4;stroke-opacity:1;stroke-dasharray:none;stroke-dashoffset:0"
       id="path3726-74"
       sodipodi:cx="10.859139"
       sodipodi:cy="9.4288759"
       sodipodi:rx="0.50507629"
       sodipodi:ry="0.44194174"
       d="m 11.364216,9.4288759 c 0,0.2440777 -0.226131,0.4419418 -0.505077,0.4419418 -0.278945,0 -0.505076,-0.1978641 -0.505076,-0.4419418 0,-0.2440777 0.226131,-0.4419417 0.505076,-0.4419417 0.278946,0 0.505077,0.197864 0.505077,0.4419417 z" />
    <path
       transform="translate(12.335509,-1.3906579)"
       sodipodi:type="arc"
       style="fill:#ffea14;fill-opacity:1;stroke:#000000;stroke-width:0.25;stroke-linecap:round;stroke-linejoin:round;stroke-miterlimit:4;stroke-opacity:1;stroke-dasharray:none;stroke-dashoffset:0"
       id="path3726-45"
       sodipodi:cx="10.859139"
       sodipodi:cy="9.4288759"
       sodipodi:rx="0.50507629"
       sodipodi:ry="0.44194174"
       d="m 11.364216,9.4288759 c 0,0.2440777 -0.226131,0.4419418 -0.505077,0.4419418 -0.278945,0 -0.505076,-0.1978641 -0.505076,-0.4419418 0,-0.2440777 0.226131,-0.4419417 0.505076,-0.4419417 0.278946,0 0.505077,0.197864 0.505077,0.4419417 z" />
    <path
       transform="translate(10.961868,-0.85177092)"
       sodipodi:type="arc"
       style="fill:#ffea14;fill-opacity:1;stroke:#000000;stroke-width:0.25;stroke-linecap:round;stroke-linejoin:round;stroke-miterlimit:4;stroke-opacity:1;stroke-dasharray:none;stroke-dashoffset:0"
       id="path3726-57"
       sodipodi:cx="10.859139"
       sodipodi:cy="9.4288759"
       sodipodi:rx="0.50507629"
       sodipodi:ry="0.44194174"
       d="m 11.364216,9.4288759 c 0,0.2440777 -0.226131,0.4419418 -0.505077,0.4419418 -0.278945,0 -0.505076,-0.1978641 -0.505076,-0.4419418 0,-0.2440777 0.226131,-0.4419417 0.505076,-0.4419417 0.278946,0 0.505077,0.197864 0.505077,0.4419417 z" />
    <path
       transform="translate(-0.69173789,0.30315444)"
       sodipodi:type="arc"
       style="fill:#ffea14;fill-opacity:1;stroke:#000000;stroke-width:0.25;stroke-linecap:round;stroke-linejoin:round;stroke-miterlimit:4;stroke-opacity:1;stroke-dasharray:none;stroke-dashoffset:0"
       id="path3726-81"
       sodipodi:cx="10.859139"
       sodipodi:cy="9.4288759"
       sodipodi:rx="0.50507629"
       sodipodi:ry="0.44194174"
       d="m 11.364216,9.4288759 c 0,0.2440777 -0.226131,0.4419418 -0.505077,0.4419418 -0.278945,0 -0.505076,-0.1978641 -0.505076,-0.4419418 0,-0.2440777 0.226131,-0.4419417 0.505076,-0.4419417 0.278946,0 0.505077,0.197864 0.505077,0.4419417 z" />
    <path
       transform="translate(0.21367854,-3.1584248)"
       sodipodi:type="arc"
       style="fill:#ffea14;fill-opacity:1;stroke:#000000;stroke-width:0.25;stroke-linecap:round;stroke-linejoin:round;stroke-miterlimit:4;stroke-opacity:1;stroke-dasharray:none;stroke-dashoffset:0"
       id="path3726-82"
       sodipodi:cx="10.859139"
       sodipodi:cy="9.4288759"
       sodipodi:rx="0.50507629"
       sodipodi:ry="0.44194174"
       d="m 11.364216,9.4288759 c 0,0.2440777 -0.226131,0.4419418 -0.505077,0.4419418 -0.278945,0 -0.505076,-0.1978641 -0.505076,-0.4419418 0,-0.2440777 0.226131,-0.4419417 0.505076,-0.4419417 0.278946,0 0.505077,0.197864 0.505077,0.4419417 z" />
    <path
       transform="translate(2.5496563,-4.7367882)"
       sodipodi:type="arc"
       style="fill:#ffea14;fill-opacity:1;stroke:#000000;stroke-width:0.25;stroke-linecap:round;stroke-linejoin:round;stroke-miterlimit:4;stroke-opacity:1;stroke-dasharray:none;stroke-dashoffset:0"
       id="path3726-490"
       sodipodi:cx="10.859139"
       sodipodi:cy="9.4288759"
       sodipodi:rx="0.50507629"
       sodipodi:ry="0.44194174"
       d="m 11.364216,9.4288759 c 0,0.2440777 -0.226131,0.4419418 -0.505077,0.4419418 -0.278945,0 -0.505076,-0.1978641 -0.505076,-0.4419418 0,-0.2440777 0.226131,-0.4419417 0.505076,-0.4419417 0.278946,0 0.505077,0.197864 0.505077,0.4419417 z" />
    <path
       transform="translate(3.499847,-0.05717324)"
       sodipodi:type="arc"
       style="fill:#ffea14;fill-opacity:1;stroke:#000000;stroke-width:0.25;stroke-linecap:round;stroke-linejoin:round;stroke-miterlimit:4;stroke-opacity:1;stroke-dasharray:none;stroke-dashoffset:0"
       id="path3726-1"
       sodipodi:cx="10.859139"
       sodipodi:cy="9.4288759"
       sodipodi:rx="0.50507629"
       sodipodi:ry="0.44194174"
       d="m 11.364216,9.4288759 c 0,0.2440777 -0.226131,0.4419418 -0.505077,0.4419418 -0.278945,0 -0.505076,-0.1978641 -0.505076,-0.4419418 0,-0.2440777 0.226131,-0.4419417 0.505076,-0.4419417 0.278946,0 0.505077,0.197864 0.505077,0.4419417 z" />
    <path
       transform="translate(8.1054952,-1.7063306)"
       sodipodi:type="arc"
       style="fill:#ffea14;fill-opacity:1;stroke:#000000;stroke-width:0.25;stroke-linecap:round;stroke-linejoin:round;stroke-miterlimit:4;stroke-opacity:1;stroke-dasharray:none;stroke-dashoffset:0"
       id="path3726-21"
       sodipodi:cx="10.859139"
       sodipodi:cy="9.4288759"
       sodipodi:rx="0.50507629"
       sodipodi:ry="0.44194174"
       d="m 11.364216,9.4288759 c 0,0.2440777 -0.226131,0.4419418 -0.505077,0.4419418 -0.278945,0 -0.505076,-0.1978641 -0.505076,-0.4419418 0,-0.2440777 0.226131,-0.4419417 0.505076,-0.4419417 0.278946,0 0.505077,0.197864 0.505077,0.4419417 z" />
    <path
       transform="translate(4.566789,-1.3600198)"
       sodipodi:type="arc"
       style="fill:#ffea14;fill-opacity:1;stroke:#000000;stroke-width:0.25;stroke-linecap:round;stroke-linejoin:round;stroke-miterlimit:4;stroke-opacity:1;stroke-dasharray:none;stroke-dashoffset:0"
       id="path3726-31"
       sodipodi:cx="10.859139"
       sodipodi:cy="9.4288759"
       sodipodi:rx="0.50507629"
       sodipodi:ry="0.44194174"
       d="m 11.364216,9.4288759 c 0,0.2440777 -0.226131,0.4419418 -0.505077,0.4419418 -0.278945,0 -0.505076,-0.1978641 -0.505076,-0.4419418 0,-0.2440777 0.226131,-0.4419417 0.505076,-0.4419417 0.278946,0 0.505077,0.197864 0.505077,0.4419417 z" />
    <path
       transform="translate(6.2714212,-1.557083)"
       sodipodi:type="arc"
       style="fill:#ffea14;fill-opacity:1;stroke:#000000;stroke-width:0.25;stroke-linecap:round;stroke-linejoin:round;stroke-miterlimit:4;stroke-opacity:1;stroke-dasharray:none;stroke-dashoffset:0"
       id="path3726-05"
       sodipodi:cx="10.859139"
       sodipodi:cy="9.4288759"
       sodipodi:rx="0.50507629"
       sodipodi:ry="0.44194174"
       d="m 11.364216,9.4288759 c 0,0.2440777 -0.226131,0.4419418 -0.505077,0.4419418 -0.278945,0 -0.505076,-0.1978641 -0.505076,-0.4419418 0,-0.2440777 0.226131,-0.4419417 0.505076,-0.4419417 0.278946,0 0.505077,0.197864 0.505077,0.4419417 z" />
    <path
       transform="translate(9.8101276,-1.8325996)"
       sodipodi:type="arc"
       style="fill:#ffea14;fill-opacity:1;stroke:#000000;stroke-width:0.25;stroke-linecap:round;stroke-linejoin:round;stroke-miterlimit:4;stroke-opacity:1;stroke-dasharray:none;stroke-dashoffset:0"
       id="path3726-740"
       sodipodi:cx="10.859139"
       sodipodi:cy="9.4288759"
       sodipodi:rx="0.50507629"
       sodipodi:ry="0.44194174"
       d="m 11.364216,9.4288759 c 0,0.2440777 -0.226131,0.4419418 -0.505077,0.4419418 -0.278945,0 -0.505076,-0.1978641 -0.505076,-0.4419418 0,-0.2440777 0.226131,-0.4419417 0.505076,-0.4419417 0.278946,0 0.505077,0.197864 0.505077,0.4419417 z" />
    <path
       transform="translate(10.125801,-3.0952903)"
       sodipodi:type="arc"
       style="fill:#ffea14;fill-opacity:1;stroke:#000000;stroke-width:0.25;stroke-linecap:round;stroke-linejoin:round;stroke-miterlimit:4;stroke-opacity:1;stroke-dasharray:none;stroke-dashoffset:0"
       id="path3726-748"
       sodipodi:cx="10.859139"
       sodipodi:cy="9.4288759"
       sodipodi:rx="0.50507629"
       sodipodi:ry="0.44194174"
       d="m 11.364216,9.4288759 c 0,0.2440777 -0.226131,0.4419418 -0.505077,0.4419418 -0.278945,0 -0.505076,-0.1978641 -0.505076,-0.4419418 0,-0.2440777 0.226131,-0.4419417 0.505076,-0.4419417 0.278946,0 0.505077,0.197864 0.505077,0.4419417 z" />
    <path
       transform="translate(1.7397398,-1.1151413)"
       sodipodi:type="arc"
       style="fill:#ffea14;fill-opacity:1;stroke:#000000;stroke-width:0.25;stroke-linecap:round;stroke-linejoin:round;stroke-miterlimit:4;stroke-opacity:1;stroke-dasharray:none;stroke-dashoffset:0"
       id="path3726-26"
       sodipodi:cx="10.859139"
       sodipodi:cy="9.4288759"
       sodipodi:rx="0.50507629"
       sodipodi:ry="0.44194174"
       d="m 11.364216,9.4288759 c 0,0.2440777 -0.226131,0.4419418 -0.505077,0.4419418 -0.278945,0 -0.505076,-0.1978641 -0.505076,-0.4419418 0,-0.2440777 0.226131,-0.4419417 0.505076,-0.4419417 0.278946,0 0.505077,0.197864 0.505077,0.4419417 z" />
    <path
       transform="translate(14.355814,-2.8427522)"
       sodipodi:type="arc"
       style="fill:#ffea14;fill-opacity:1;stroke:#000000;stroke-width:0.25;stroke-linecap:round;stroke-linejoin:round;stroke-miterlimit:4;stroke-opacity:1;stroke-dasharray:none;stroke-dashoffset:0"
       id="path3726-21-2"
       sodipodi:cx="10.859139"
       sodipodi:cy="9.4288759"
       sodipodi:rx="0.50507629"
       sodipodi:ry="0.44194174"
       d="m 11.364216,9.4288759 c 0,0.2440777 -0.226131,0.4419418 -0.505077,0.4419418 -0.278945,0 -0.505076,-0.1978641 -0.505076,-0.4419418 0,-0.2440777 0.226131,-0.4419417 0.505076,-0.4419417 0.278946,0 0.505077,0.197864 0.505077,0.4419417 z" />
    <path
       transform="translate(-1.3705792,-1.3122043)"
       sodipodi:type="arc"
       style="fill:#ffea14;fill-opacity:1;stroke:#000000;stroke-width:0.25;stroke-linecap:round;stroke-linejoin:round;stroke-miterlimit:4;stroke-opacity:1;stroke-dasharray:none;stroke-dashoffset:0"
       id="path3726-21-0"
       sodipodi:cx="10.859139"
       sodipodi:cy="9.4288759"
       sodipodi:rx="0.50507629"
       sodipodi:ry="0.44194174"
       d="m 11.364216,9.4288759 c 0,0.2440777 -0.226131,0.4419418 -0.505077,0.4419418 -0.278945,0 -0.505076,-0.1978641 -0.505076,-0.4419418 0,-0.2440777 0.226131,-0.4419417 0.505076,-0.4419417 0.278946,0 0.505077,0.197864 0.505077,0.4419417 z" />
    <path
       transform="translate(-2.0848649,-2.4282758)"
       sodipodi:type="arc"
       style="fill:#ffea14;fill-opacity:1;stroke:#000000;stroke-width:0.25;stroke-linecap:round;stroke-linejoin:round;stroke-miterlimit:4;stroke-opacity:1;stroke-dasharray:none;stroke-dashoffset:0"
       id="path3726-21-1"
       sodipodi:cx="10.859139"
       sodipodi:cy="9.4288759"
       sodipodi:rx="0.50507629"
       sodipodi:ry="0.44194174"
       d="m 11.364216,9.4288759 c 0,0.2440777 -0.226131,0.4419418 -0.505077,0.4419418 -0.278945,0 -0.505076,-0.1978641 -0.505076,-0.4419418 0,-0.2440777 0.226131,-0.4419417 0.505076,-0.4419417 0.278946,0 0.505077,0.197864 0.505077,0.4419417 z" />
    <path
       transform="translate(-6.2812935,-1.8925615)"
       sodipodi:type="arc"
       style="fill:#ffea14;fill-opacity:1;stroke:#000000;stroke-width:0.25;stroke-linecap:round;stroke-linejoin:round;stroke-miterlimit:4;stroke-opacity:1;stroke-dasharray:none;stroke-dashoffset:0"
       id="path3726-21-7"
       sodipodi:cx="10.859139"
       sodipodi:cy="9.4288759"
       sodipodi:rx="0.50507629"
       sodipodi:ry="0.44194174"
       d="m 11.364216,9.4288759 c 0,0.2440777 -0.226131,0.4419418 -0.505077,0.4419418 -0.278945,0 -0.505076,-0.1978641 -0.505076,-0.4419418 0,-0.2440777 0.226131,-0.4419417 0.505076,-0.4419417 0.278946,0 0.505077,0.197864 0.505077,0.4419417 z" />
    <path
       transform="translate(-5.2991506,-0.9550615)"
       sodipodi:type="arc"
       style="fill:#ffea14;fill-opacity:1;stroke:#000000;stroke-width:0.25;stroke-linecap:round;stroke-linejoin:round;stroke-miterlimit:4;stroke-opacity:1;stroke-dasharray:none;stroke-dashoffset:0"
       id="path3726-21-74"
       sodipodi:cx="10.859139"
       sodipodi:cy="9.4288759"
       sodipodi:rx="0.50507629"
       sodipodi:ry="0.44194174"
       d="m 11.364216,9.4288759 c 0,0.2440777 -0.226131,0.4419418 -0.505077,0.4419418 -0.278945,0 -0.505076,-0.1978641 -0.505076,-0.4419418 0,-0.2440777 0.226131,-0.4419417 0.505076,-0.4419417 0.278946,0 0.505077,0.197864 0.505077,0.4419417 z" />
    <path
       transform="translate(-2.5312934,-0.33006151)"
       sodipodi:type="arc"
       style="fill:#ffea14;fill-opacity:1;stroke:#000000;stroke-width:0.25;stroke-linecap:round;stroke-linejoin:round;stroke-miterlimit:4;stroke-opacity:1;stroke-dasharray:none;stroke-dashoffset:0"
       id="path3726-21-9"
       sodipodi:cx="10.859139"
       sodipodi:cy="9.4288759"
       sodipodi:rx="0.50507629"
       sodipodi:ry="0.44194174"
       d="m 11.364216,9.4288759 c 0,0.2440777 -0.226131,0.4419418 -0.505077,0.4419418 -0.278945,0 -0.505076,-0.1978641 -0.505076,-0.4419418 0,-0.2440777 0.226131,-0.4419417 0.505076,-0.4419417 0.278946,0 0.505077,0.197864 0.505077,0.4419417 z" />
    <path
       transform="translate(0.6383494,1.2324385)"
       sodipodi:type="arc"
       style="fill:#ffea14;fill-opacity:1;stroke:#000000;stroke-width:0.25;stroke-linecap:round;stroke-linejoin:round;stroke-miterlimit:4;stroke-opacity:1;stroke-dasharray:none;stroke-dashoffset:0"
       id="path3726-21-0-3"
       sodipodi:cx="10.859139"
       sodipodi:cy="9.4288759"
       sodipodi:rx="0.50507629"
       sodipodi:ry="0.44194174"
       d="m 11.364216,9.4288759 c 0,0.2440777 -0.226131,0.4419418 -0.505077,0.4419418 -0.278945,0 -0.505076,-0.1978641 -0.505076,-0.4419418 0,-0.2440777 0.226131,-0.4419417 0.505076,-0.4419417 0.278946,0 0.505077,0.197864 0.505077,0.4419417 z" />
  </g>
</svg>
