<?xml version="1.0" encoding="UTF-8" standalone="no"?>
<!-- Created with Inkscape (http://www.inkscape.org/) -->

<svg
   xmlns:dc="http://purl.org/dc/elements/1.1/"
   xmlns:cc="http://creativecommons.org/ns#"
   xmlns:rdf="http://www.w3.org/1999/02/22-rdf-syntax-ns#"
   xmlns:svg="http://www.w3.org/2000/svg"
   xmlns="http://www.w3.org/2000/svg"
   xmlns:sodipodi="http://sodipodi.sourceforge.net/DTD/sodipodi-0.dtd"
   xmlns:inkscape="http://www.inkscape.org/namespaces/inkscape"
   width="21.590111"
   height="28.263988"
   id="svg2848"
   version="1.1"
   inkscape:version="0.47 r22583"
   sodipodi:docname="pinkfish.svg">
  <defs
     id="defs2850">
    <inkscape:perspective
       sodipodi:type="inkscape:persp3d"
       inkscape:vp_x="0 : 16 : 1"
       inkscape:vp_y="0 : 1000 : 0"
       inkscape:vp_z="32 : 16 : 1"
       inkscape:persp3d-origin="16 : 10.666667 : 1"
       id="perspective2856" />
  </defs>
  <sodipodi:namedview
     id="base"
     pagecolor="#ffffff"
     bordercolor="#666666"
     borderopacity="1.0"
     inkscape:pageopacity="0.0"
     inkscape:pageshadow="2"
     inkscape:zoom="11.197802"
     inkscape:cx="12.890745"
     inkscape:cy="4.6852445"
     inkscape:current-layer="layer1"
     showgrid="true"
     inkscape:grid-bbox="true"
     inkscape:document-units="px"
     inkscape:window-width="1280"
     inkscape:window-height="968"
     inkscape:window-x="-4"
     inkscape:window-y="-4"
     inkscape:window-maximized="1" />
  <metadata
     id="metadata2853">
    <rdf:RDF>
      <cc:Work
         rdf:about="">
        <dc:format>image/svg+xml</dc:format>
        <dc:type
           rdf:resource="http://purl.org/dc/dcmitype/StillImage" />
        <dc:title></dc:title>
      </cc:Work>
    </rdf:RDF>
  </metadata>
  <g
     id="layer1"
     inkscape:label="Layer 1"
     inkscape:groupmode="layer"
     transform="translate(-2.8055251,-1.2946921)">
    <path
       style="fill:#ff6600;stroke:#d45500;stroke-width:1.185027"
       d="m 15.081084,2.7167281 c 0.342235,0.9642467 0.580824,2.1343284 -0.163079,2.997479 -0.405959,0.3510465 -0.889651,0.6682498 -1.100779,1.1615232 -0.748156,-0.509981 -1.819857,-1.4311289 -2.731563,-0.6744328 -0.833576,0.9396844 -0.458932,2.5486943 0.747944,3.0490298 0.81121,0.2778915 1.676517,-0.00331 2.513624,0.023386 -0.553819,1.2106457 -1.071276,2.4342457 -1.549245,3.6719117 -0.37093,1.390995 -0.762571,2.785601 -0.858576,4.220885 -0.06278,1.252957 0.08998,2.514551 0.247032,3.759904 0.134412,1.006605 -0.0089,2.094918 -0.693083,2.922542 -0.895324,1.026065 -4.1681877,1.382432 -5.1428629,0.386411 -0.9434528,-0.822566 2.1134162,-1.79275 1.6837052,-2.940734 -0.12244,-1.068269 -3.6087803,-2.249667 -4.6328668,1.504154 -0.056138,1.065456 0.6153443,2.020796 1.214489,2.885009 0.67423,0.912482 1.4865874,1.233741 2.4338105,1.906531 1.1116023,0.630439 1.9831913,0.961028 3.252367,1.113693 1.332665,0.184877 2.680423,0.266399 4.027826,0.261977 1.121473,-0.05137 1.911185,0.100416 2.812891,-0.532935 0.895688,-0.578434 1.417573,-1.483675 2.015325,-2.298528 0.588812,-0.93388 0.81751,-2.032883 0.576953,-3.093125 -0.249168,-1.601882 -0.677697,-3.173003 -1.052455,-4.752496 -0.218853,-1.190098 -0.800747,-2.352609 -0.68701,-3.575885 0.07015,-1.202819 0.788872,-2.242189 1.301972,-3.315806 0.553456,-1.042425 0.854682,-2.1946926 0.89061,-3.3541158 0.127718,-1.1813115 -0.214148,-2.4125 -1.058988,-3.3249889 -0.863216,-0.9331381 -1.96006,-1.6451756 -2.988032,-2.413543 -0.399521,-0.229878 -0.860352,-0.4546851 -1.345396,-0.4121534 0.09513,0.274769 0.190257,0.5495379 0.285387,0.8243069 z"
       id="rect2962"
       sodipodi:nodetypes="ccccccccscccccccccccccccsccc" />
    <path
       style="fill:#ff6600;stroke:#d45500;stroke-width:1.25069463"
       d="m 20.427182,10.209985 c -1.159893,0.604108 -2.013006,1.688058 -2.336957,2.874708 -0.37224,1.223508 -0.559354,2.525246 -0.311173,3.78552 0.295104,1.257173 0.382858,2.621177 1.261964,3.681075 0.717418,0.89662 2.322773,1.299977 3.281706,0.496646 0.294383,-0.218506 0.533184,-0.703563 0.02063,-0.833863 -0.945298,-0.153493 -1.495517,-1.426987 -0.652314,-1.985829 0.66986,-0.222115 1.636518,-0.139932 1.997711,-0.824307 -0.910867,-0.120604 -2.305887,-0.568424 -1.997711,-1.648614 0.477323,-0.762536 1.777959,-0.702927 2.07925,-1.611145 -0.947775,-0.179539 -2.333886,-0.369921 -2.446175,-1.461271 0.136066,-0.690871 0.931092,-0.947404 1.345397,-1.461271 -0.359132,-0.785789 -1.336107,-1.2903406 -2.242328,-1.011649 z"
       id="path2966" />
    <path
       sodipodi:type="arc"
       style="fill:#ffffff;stroke:#d45500"
       id="path2976"
       sodipodi:cx="14.690383"
       sodipodi:cy="6.1913638"
       sodipodi:rx="1.3842002"
       sodipodi:ry="1.1609421"
       d="m 16.074583,6.1913638 c 0,0.6411706 -0.619727,1.1609421 -1.3842,1.1609421 -0.764473,0 -1.3842,-0.5197715 -1.3842,-1.1609421 0,-0.6411706 0.619727,-1.1609421 1.3842,-1.1609421 0.764473,0 1.3842,0.5197715 1.3842,1.1609421 z"
       transform="translate(1.5181551,-0.80372916)" />
    <path
       sodipodi:type="arc"
       style="fill:#000000;stroke:#000000"
       id="path2978"
       sodipodi:cx="16.074583"
       sodipodi:cy="5.6555443"
       sodipodi:rx="0.35721296"
       sodipodi:ry="0.35721296"
       d="m 16.431796,5.6555443 c 0,0.1972833 -0.15993,0.3572129 -0.357213,0.3572129 -0.197283,0 -0.357213,-0.1599296 -0.357213,-0.3572129 0,-0.1972833 0.15993,-0.357213 0.357213,-0.357213 0.197283,0 0.357213,0.1599297 0.357213,0.357213 z"
       transform="translate(-0.08930324,0.17860648)" />
  </g>
</svg>
